<svg width="26" height="32" viewBox="0 0 26 32" fill="none" xmlns="http://www.w3.org/2000/svg" aria-hidden="true"><path d="M24.5334 2.50005C23.9334 1.73338 23.1334 1.23338 22.2334 1.00005C21.9334 0.600049 21.5 0.333382 21 0.333382C20.2 0.333382 19.5334 1.00005 19.5334 1.80005C19.5334 2.60005 20.2 3.26672 21 3.26672C21.3334 3.26672 21.6334 3.13338 21.9 2.93338C22.3334 3.06672 22.7 3.33338 23 3.70005C23.4667 4.30005 23.6667 5.06672 23.5 5.83338L20.9667 17.1C20.5334 19.0667 18.8 20.4334 16.8 20.4334C14.8 20.4334 13.0667 19.0667 12.6334 17.1L10.1 5.83338C9.93338 5.06672 10.1 4.30005 10.6 3.70005C10.9 3.33338 11.3 3.06672 11.7334 2.90005C11.9667 3.10005 12.3 3.23338 12.6334 3.23338C13.4334 3.23338 14.1 2.56672 14.1 1.76672C14.1 0.966715 13.4334 0.300049 12.6334 0.300049C12.1334 0.300049 11.7 0.533382 11.4334 0.933382C10.5 1.16672 9.70004 1.70005 9.06671 2.46672C8.20005 3.53338 7.90004 4.90005 8.20004 6.23338L10.7334 17.5C11.3334 20.1667 13.5334 22.0667 16.2 22.3334V25.3334C16.2 28.1667 13.9 30.4334 11.1334 30.4334C5.63338 30.0667 4.90004 22.5 4.76671 20.5334C6.46671 20.2334 7.76671 18.7667 7.76671 16.9667C7.76671 14.9667 6.13338 13.3667 4.16671 13.3667C2.16671 13.3667 0.566711 15 0.566711 16.9667C0.566711 18.7667 1.86671 20.2334 3.56671 20.5334C3.60005 21.4334 3.76671 23.4667 4.43338 25.5667C5.66671 29.3334 7.93338 31.4667 11.1 31.6667C14.6 31.6667 17.4334 28.8334 17.4334 25.3334V22.3334C20.1 22.0667 22.3 20.1667 22.9 17.5L25.4334 6.23338C25.7 4.93338 25.3667 3.56672 24.5334 2.50005ZM1.73338 17C1.73338 15.6667 2.80004 14.6 4.13338 14.6C5.46671 14.6 6.53338 15.6667 6.53338 17C6.53338 18.3334 5.46671 19.4 4.13338 19.4C2.80004 19.3667 1.73338 18.3 1.73338 17Z" fill="black"></path></svg>