<svg width="31" height="32" viewBox="0 0 31 32" fill="none" xmlns="http://www.w3.org/2000/svg" aria-hidden="true"><g clip-path="url(#clip0_45_1198)"><path d="M14.9333 17.7641C15.0974 17.9282 15.3026 18.0103 15.5077 18.0103C15.7539 18.0103 15.959 17.9282 16.1231 17.7641L24.7385 9.10769C25.7231 8.08205 26.2974 6.72821 26.2974 5.33333C26.2974 3.89744 25.7641 2.54359 24.7385 1.55897C23.7128 0.574359 22.359 0 20.9641 0C19.5282 0 18.1744 0.533333 17.1898 1.55897L15.5077 3.24103L13.8256 1.55897C12.8 0.533333 11.4872 0 10.0513 0C8.61539 0 7.30257 0.574359 6.27693 1.55897C5.29232 2.58462 4.71796 3.93846 4.71796 5.33333C4.71796 6.76923 5.25129 8.12308 6.27693 9.10769L14.9333 17.7641ZM10.0513 1.64103C11.0769 1.64103 12.0205 2.01026 12.6769 2.70769L14.9333 4.92308C15.2615 5.25128 15.7539 5.25128 16.0821 4.92308L18.3385 2.66667C19.0359 1.96923 19.9385 1.6 20.9641 1.6C21.9487 1.6 22.8513 2.01026 23.5898 2.70769C24.2872 3.40513 24.6564 4.30769 24.6564 5.33333C24.6564 6.35897 24.2872 7.26154 23.5898 7.95897L15.5077 16.041L7.42565 7.95897C6.72821 7.26154 6.35898 6.35897 6.35898 5.33333C6.35898 4.30769 6.72821 3.40513 7.42565 2.70769C8.16411 2.01026 9.06667 1.64103 10.0513 1.64103Z" fill="black"></path><path d="M30.7692 21.0871L30.6462 20.6769C30.4821 19.9795 29.8667 19.4871 29.1282 19.4871C28.8821 19.4871 28.6769 19.5692 28.4718 19.6923L27.4051 20.3487C27.2 19.8153 26.8308 19.4051 26.2564 19.241C25.8872 19.1179 25.518 19.1179 25.1487 19.241L20.6769 21.0051L9.27182 19.5692C8.90259 19.5282 8.53335 19.5692 8.16412 19.6923L1.23079 22.0718C0.984638 22.1538 0.861561 22.441 0.943612 22.6871C1.02566 22.9333 1.31284 23.0564 1.559 22.9743L8.49233 20.5948C8.69746 20.5128 8.94361 20.4718 9.18976 20.5128L20.5128 21.9487C20.5539 21.9897 20.6359 21.9897 20.6769 21.9897C20.718 21.9897 20.759 21.9897 20.8 21.9897L21.1282 22.0307C21.4154 22.0718 21.6205 22.3179 21.5795 22.6051L21.5385 23.2615C21.4975 23.6307 21.2103 23.8769 20.8821 23.8769L14.8923 24C14.7693 23.9179 14.6051 23.9589 14.4821 24L12.1846 23.9179C11.9385 23.9179 11.6923 24.123 11.6923 24.3692C11.6923 24.6153 11.8975 24.8615 12.1436 24.8615L14.5641 24.9436L18.1744 26.9128C18.3385 26.9948 18.5026 26.9948 18.6667 26.9128L27.0359 21.7025C27.241 21.7025 27.3641 21.5794 27.4462 21.4564L28.8821 20.5538C28.9641 20.5128 29.0051 20.5128 29.0462 20.5128C29.3334 20.5128 29.5795 20.6769 29.6616 20.9641L29.7846 21.3743C29.8667 21.7436 29.7436 22.1128 29.4564 22.3179L18.5436 30.441C18.2975 30.6051 18.0103 30.7692 17.6821 30.8512L17.1487 30.9743C16.9026 31.0564 16.6154 31.0564 16.3693 30.9743L5.53848 27.4051C4.9231 27.2 4.26669 27.241 3.69233 27.5282L0.246177 29.2102C0.0410485 29.3333 -0.0820284 29.6205 0.0410485 29.8666C0.164125 30.0718 0.451305 30.1948 0.697459 30.0718L4.14361 28.3897C4.51284 28.2256 4.9231 28.1846 5.29233 28.3077L16.1231 31.8769C16.3693 31.9589 16.6154 32 16.8616 32C17.0667 32 17.2718 31.9589 17.4359 31.8769L17.9693 31.7538C18.4205 31.6307 18.7898 31.4256 19.159 31.1794L30.0718 23.0153C30.6872 22.5641 30.9334 21.8256 30.7692 21.0871ZM25.4769 20.1436C25.6 20.1025 25.7641 20.1025 25.9282 20.1436C26.2564 20.2666 26.4616 20.5538 26.5026 20.882L22.441 23.3846V23.3436L22.4821 22.6871C22.5231 22.2359 22.318 21.8256 22.0308 21.4974L25.4769 20.1436ZM18.3795 25.9282L16.5334 24.9025L20.1436 24.8205L18.3795 25.9282Z" fill="black"></path></g><defs><clipPath id="clip0_45_1198"><rect width="30.8103" height="32" fill="white"></rect></clipPath></defs></svg>