<svg width="32" height="33" viewBox="0 0 32 33" fill="none" xmlns="http://www.w3.org/2000/svg" aria-hidden="true"><path d="M31.8012 0.248505C31.5031 -0.0496318 31.0559 -0.0496318 30.7578 0.248505L27.8261 3.13049L27.7764 3.0808C27.0311 2.33546 25.8882 2.33546 25.1429 3.0808L24.1491 4.07459C23.8509 3.97521 23.5528 3.97521 23.205 3.97521C22.3602 3.97521 21.6149 4.27335 21.0186 4.86962L8.79503 17.0435C8.69565 17.1429 8.64596 17.2423 8.59627 17.3417L7.40373 16.1491C6.80745 15.5529 5.91304 15.5529 5.31677 16.1491L3.82609 17.5901C3.22981 18.1864 3.22981 19.0808 3.82609 19.6771L7.55279 23.4038L5.41615 25.5404L3.97516 24.1491C3.37888 23.5529 2.48447 23.5529 1.8882 24.1491L0.447205 25.5901C-0.149068 26.1864 -0.149068 27.0808 0.447205 27.6771L4.37267 31.6025C4.67081 31.9007 5.01863 32.0497 5.41615 32.0497C5.81366 32.0497 6.16149 31.9007 6.45963 31.6025L7.90062 30.1615C8.19876 29.8634 8.34783 29.5156 8.34783 29.1181C8.34783 28.7206 8.19876 28.3727 7.90062 28.0746L6.45963 26.6336L8.59627 24.497L12.323 28.174C12.6211 28.4721 13.0186 28.6212 13.4161 28.6212C13.7143 28.6212 14.0621 28.5218 14.3106 28.323C14.3602 28.2733 14.3602 28.2733 14.4099 28.2237L15.8509 26.7827C16.1491 26.4845 16.2981 26.1367 16.2981 25.7392C16.2981 25.3417 16.1491 24.9938 15.8509 24.6957L14.6584 23.5032C14.7578 23.4535 14.9068 23.4038 14.9565 23.3044L27.0807 11.0808C27.9752 10.1864 28.1739 8.84478 27.7267 7.70192L28.6708 6.75782C29.3665 6.06217 29.4161 5.06838 28.8199 4.32304L31.8012 1.34167C32.0497 1.04354 32.0497 0.546641 31.8012 0.248505ZM5.41615 29.8137L2.18634 26.5839L2.93168 25.8386L6.16149 29.0684L5.41615 29.8137ZM26.6335 4.22366L27.5776 5.16776C27.7267 5.31683 27.7267 5.56527 27.5776 5.71434L26.8323 6.45968L25.3416 4.969L26.087 4.22366C26.2857 4.0249 26.4845 4.0249 26.6335 4.22366ZM13.3665 26.4348L5.56522 18.6336L6.31056 17.8883L14.1118 25.6895L13.3665 26.4348ZM25.6894 9.63981L13.5652 21.8137C13.4658 21.9131 13.4161 22.0125 13.3665 22.1119L9.8882 18.6336C9.98758 18.5839 10.1366 18.5342 10.1863 18.4348L13.3665 15.2547L15.354 17.1926C15.5031 17.3417 15.7019 17.3914 15.8509 17.3914C16.0497 17.3914 16.2484 17.292 16.3975 17.1429C16.6957 16.8448 16.6957 16.3976 16.3975 16.0994L14.4099 14.1615L15.7516 12.8199L17.6894 14.7578C17.8385 14.9069 18.0373 14.9566 18.236 14.9566C18.4348 14.9566 18.6335 14.9069 18.7826 14.7578C19.0807 14.4597 19.0807 14.0125 18.7826 13.7143L16.8447 11.7765L18.1366 10.4845L20.1242 12.4224C20.2733 12.5715 20.472 12.6212 20.6211 12.6212C20.8199 12.6212 21.0186 12.5218 21.1677 12.3727C21.4658 12.0746 21.4658 11.6274 21.1677 11.3292L19.1801 9.39136L22.3106 6.26093C22.7081 5.86341 23.4534 5.86341 23.8509 6.26093L25.6398 8.04975C26.087 8.49695 26.087 9.24229 25.6894 9.63981Z" fill="black"></path></svg>